<svg width="482" height="131" viewBox="0 0 482 131" fill="none" xmlns="http://www.w3.org/2000/svg">
<path d="M31 73.5112L44.75 77.2612M44.75 77.2612L58.5 81.0112H79.5L95 69.0112L107.5 57.5112L112.5 40.0112L107.5 17.5112L91 5.51123L68 2.51123H43.5L2 120.511V126.011L4.5 129.011H15H21L26 124.511L31 112.011L38.5 94.5112L44.75 77.2612Z" stroke="black" stroke-width="3"/>
<path d="M187.5 18.5112L176 6.51123L157 2.01123L128.5 6.51123L116 18.5112L105 54.5112L98.5 93.0112L101.5 113.011L111 121.011L123.5 128.011H151.5L170 121.011L179.5 101.511L187.5 75.5112H139.5H206H231L249 72.5112L260.5 61.5112L267 35.0112L263.5 18.5112L249 6.51123L224.5 2.01123H206L176 128.011" stroke="black" stroke-width="3"/>
<path d="M255.5 98.0112L279.5 3.51123H303L279.5 89.5112V98.0112L296.5 102.511H310L316.5 93.0112L339.5 3.51123H363.5L339.5 98.0112L328.5 122.011L310 128.511H293L279.5 126.011L265 122.011L255.5 109.511V98.0112Z" stroke="black" stroke-width="3"/>
<path d="M404.5 2.51123L335 128.511H347L366 92.0112H422L430 128.511H438L413.5 2.51123H404.5Z" stroke="black" stroke-width="3"/>
<path d="M372.5 80.5112L406 18.0112L419 80.5112H372.5Z" stroke="black" stroke-width="3"/>
<circle cx="475" cy="123.511" r="5.5" fill="black"/>
<path d="M478.271 91.0796C478.271 89.7189 478.02 88.4478 477.519 87.2661C477 86.0666 476.239 85.0819 475.236 84.312C474.216 83.5243 472.972 83.0767 471.503 82.9692V79.9077C473.347 79.9972 474.995 80.5612 476.445 81.5996C477.877 82.6201 479.005 83.9629 479.829 85.6279C480.634 87.2751 481.037 89.0923 481.037 91.0796C481.037 93.1027 480.67 94.8931 479.936 96.4507C479.202 97.9904 478.181 99.2795 476.875 100.318C475.55 101.356 474.01 102.144 472.255 102.681C470.483 103.2 468.576 103.46 466.535 103.46H465.407C463.366 103.46 461.468 103.2 459.714 102.681C457.941 102.144 456.402 101.356 455.095 100.318C453.77 99.2795 452.74 97.9904 452.006 96.4507C451.272 94.911 450.905 93.1296 450.905 91.1064C450.905 89.0296 451.326 87.1676 452.167 85.5205C453.009 83.8555 454.2 82.5306 455.739 81.5459C457.279 80.5433 459.105 79.9972 461.218 79.9077V82.9692C459.66 83.0588 458.317 83.4705 457.189 84.2046C456.062 84.9386 455.193 85.9054 454.584 87.105C453.976 88.3045 453.671 89.6383 453.671 91.1064C453.671 92.7536 453.994 94.159 454.638 95.3228C455.265 96.4865 456.133 97.4354 457.243 98.1694C458.335 98.8856 459.589 99.4137 461.003 99.7539C462.399 100.094 463.868 100.264 465.407 100.264H466.535C468.093 100.264 469.579 100.103 470.993 99.7808C472.39 99.4406 473.634 98.9124 474.726 98.1963C475.818 97.4622 476.687 96.5133 477.331 95.3496C477.958 94.168 478.271 92.7446 478.271 91.0796Z" fill="black"/>
<path d="M466.428 75.208H465.542C463.429 75.208 461.477 74.9036 459.687 74.2949C457.897 73.6862 456.348 72.8179 455.041 71.6899C453.734 70.5441 452.722 69.1745 452.006 67.5811C451.272 65.9876 450.905 64.2152 450.905 62.2637C450.905 60.2943 451.272 58.5129 452.006 56.9194C452.722 55.326 453.734 53.9564 455.041 52.8105C456.348 51.6647 457.897 50.7874 459.687 50.1787C461.477 49.57 463.429 49.2656 465.542 49.2656H466.428C468.54 49.2656 470.492 49.57 472.282 50.1787C474.055 50.7874 475.594 51.6647 476.901 52.8105C478.208 53.9385 479.229 55.2992 479.963 56.8926C480.679 58.486 481.037 60.2585 481.037 62.21C481.037 64.1794 480.679 65.9608 479.963 67.5542C479.229 69.1476 478.208 70.5173 476.901 71.6631C475.594 72.8089 474.055 73.6862 472.282 74.2949C470.492 74.9036 468.54 75.208 466.428 75.208ZM465.542 72.0122H466.428C468.021 72.0122 469.534 71.7974 470.966 71.3677C472.381 70.938 473.643 70.3114 474.753 69.4878C475.845 68.6642 476.704 67.6437 477.331 66.4263C477.958 65.2088 478.271 63.8034 478.271 62.21C478.271 60.6344 477.958 59.2469 477.331 58.0474C476.704 56.8299 475.845 55.8094 474.753 54.9858C473.643 54.1623 472.381 53.5446 470.966 53.1328C469.534 52.7031 468.021 52.4883 466.428 52.4883H465.542C463.966 52.4883 462.471 52.7031 461.057 53.1328C459.642 53.5446 458.38 54.1712 457.27 55.0127C456.16 55.8363 455.283 56.8568 454.638 58.0742C453.994 59.2917 453.671 60.6882 453.671 62.2637C453.671 63.8392 453.994 65.2357 454.638 66.4531C455.283 67.6527 456.16 68.6732 457.27 69.5146C458.38 70.3382 459.642 70.9648 461.057 71.3945C462.471 71.8063 463.966 72.0122 465.542 72.0122Z" fill="black"/>
<path d="M457.458 39.5708H480.5V42.7935H451.442V39.7051L457.458 39.5708ZM464.172 40.1616L463.366 41.7192C461.647 41.6118 460.036 41.2896 458.532 40.7524C457.028 40.1974 455.703 39.4276 454.558 38.4429C453.412 37.4582 452.517 36.2765 451.872 34.8979C451.228 33.5194 450.905 31.9528 450.905 30.1982C450.905 28.7839 451.102 27.5037 451.496 26.3579C451.872 25.1942 452.472 24.2095 453.295 23.4038C454.101 22.5802 455.157 21.9447 456.464 21.4971C457.771 21.0495 459.338 20.8257 461.164 20.8257H480.5V24.0215H461.271C459.338 24.0215 457.825 24.3258 456.733 24.9346C455.641 25.5254 454.862 26.3579 454.396 27.4321C453.931 28.4884 453.698 29.7148 453.698 31.1113C453.698 32.7585 454.038 34.1549 454.719 35.3008C455.381 36.4287 456.25 37.3507 457.324 38.0669C458.38 38.7651 459.517 39.2843 460.734 39.6245C461.934 39.9647 463.08 40.1437 464.172 40.1616ZM461.647 20.8525L461.701 23.001C460.287 22.9115 458.935 22.5892 457.646 22.0342C456.357 21.4613 455.211 20.6825 454.208 19.6978C453.188 18.7131 452.382 17.5404 451.792 16.1797C451.201 14.8011 450.905 13.2524 450.905 11.5337C450.905 10.0298 451.111 8.68701 451.523 7.50537C451.917 6.32373 452.552 5.33008 453.43 4.52441C454.289 3.70085 455.39 3.07422 456.733 2.64453C458.076 2.21484 459.687 2 461.567 2L480.5 2V5.22266L461.54 5.22266C459.481 5.22266 457.888 5.52702 456.76 6.13574C455.614 6.72656 454.817 7.55013 454.37 8.60645C453.922 9.66276 453.698 10.8981 453.698 12.3125C453.716 13.709 453.976 14.9354 454.477 15.9917C454.96 17.048 455.605 17.9342 456.411 18.6504C457.198 19.3486 458.049 19.8857 458.962 20.2617C459.875 20.6198 460.77 20.8167 461.647 20.8525Z" fill="black"/>
</svg>
